# xmcd
#
# Track frame offsets:
#	150
#	11913
#	25455
#	40614
#	51702
#	66664
#	79275
#	92798
#	103519
#	117588
#	130229
#	142245
#	158811
#	172778
#	181214
#	197900
#	212179
#	228736
#	242387
#	254674
#	271665
#	290934
#	301555
#	319546
#	336854
#
# Disc length: 4646 seconds
#
# Revision: 0
# Processed by: cddbd v1.5.2PL0 Copyright (c) Steve Scherf et al.
# Submitted via: EasyCDDAExtractor 16.0.6.1
#
DISCID=7c122419
DTITLE=Συλλογικός δίσκος - Στις μπουάτ του '60 3
DYEAR=2012
DGENRE=Νέο κύμα
TTITLE0=Βιολάρης Μιχάλης-Χωματά Καίτη - Βάρκα χωρίς πανιά [Γιάννης Σπανός-Κώστ
TTITLE0=ας Κωτούλας]
TTITLE1=Χωματά Καίτη - Κι αν σ' αγαπώ, δε σ' ορίζω [Γιάννης Σπανός-Γιώργος Παπ
TTITLE1=αστεφάνου]
TTITLE2=Ζωγράφος Γιώργος - Άκρη δεν έχει ο ουρανός [Νότης Μαυρουδής-Γιάννης Κα
TTITLE2=κουλίδης]
TTITLE3=Μαβίλη Αλέκα - Ο παλιός μας έρωτας [Γιάννης Σπανός-Ναπολέων Λαπαθιώτης
TTITLE3=]
TTITLE4=Βιολάρης Μιχάλης - Το δελφινοκόριτσο [Λίνος Κόκοτος-Οδυσσέας Ελύτης]
TTITLE5=Αστεριάδη Πόπη - Πάει κι αυτή η Κυριακή [Λάκης Παππάς-Γιάννης Αργύρης]
TTITLE6=Ζωγράφος Γιώργος - Η γοργόνα [Μάνος Λοΐζος-Λευτέρης Παπαδόπουλος]
TTITLE7=Χωματά Καίτη - Μικρό ταξείδι στο γιαλό [Γιάννης Σπανός-Γιώργος Παπαστε
TTITLE7=φάνου]
TTITLE8=Γεωργίου Αλέξης - Ας ήταν νά 'χα [Σταύρος Κουγιουμτζής]
TTITLE9=Αρλέτα - Είχα ένα αγόρι [Αρλέτα-Παυλίνα Παμπούδη]
TTITLE10=Αργύρης Γιάννης - Έλα μαζί μου [Παντελής Λεούσης-Γιάννης Αργύρης]
TTITLE11=Παππάς Λάκης - Μπαλλάδα [Νίκος Μαμαγκάκης-Γιώργος Σεφέρης]
TTITLE12=Ζωγράφος Γιώργος - Σ' αυτή τη γη [Νότης Μαυρουδής-Γιάννης Κακουλίδης]
TTITLE13=Μαβίλη Αλέκα - Πάθος [Γιάννης Σπανός-Μυρτιώτισσα]
TTITLE14=Χωματά Καίτη - Η Μαρία των βράχων [Γιώργος Κριμιζάκης-Σώτια Τσώτου]
TTITLE15=Πανδής Πέτρος - Νύχτα φθινοπωριάτικη [Νότης Μαυρουδής-Γεωργία Τρέμουλ
TTITLE15=η]
TTITLE16=Αρλέτα - Μαργαρίτα μαγιοπούλα [Μίκης Θεοδωράκης-Ιάκωβος Καμπανέλλης]
TTITLE17=Πουλόπουλος Γιάννης - Μη μού θυμώνεις μάτια μου [Σταύρος Κουγιουμτζής
TTITLE17=]
TTITLE18=Γεωργίου Αλέξης - Ερωτικό [Γιάννης Σπανός-Κώστας Γεωργουσόπουλος]
TTITLE19=Δουράκη Μαρία - Έλα σαν άστρο [Βασίλης Κουμπής-Λευτέρης Παπαδόπουλος]
TTITLE20=Μπιρμπίλη Σούλα - Κοιμήσου αγγελούδι μου [Μίκης Θεοδωράκης-Κώστας Βίρ
TTITLE20=βος]
TTITLE21=Αστεριάδη Πόπη - Στου τηλεφώνου το κοχύλι [Γιάννης Σπανός-Γεώργιος Αθ
TTITLE21=άνας]
TTITLE22=Μαβίλη Αλέκα - Παλληκάρι διψασμένο [Σταύρος Ξαρχάκος-Ντίνος Δημόπουλο
TTITLE22=ς]
TTITLE23=Κουμιώτη Ρένα - Φωτιά στα τραίνα [Βαγγέλης Πιτσιλαδής-Δημήτρης Ιατρόπ
TTITLE23=ουλος]
TTITLE24=Μητσιάς Μανώλης - Όμορφες μέρες [Γιάννης Σπανός-Κώστας Ασημακόπουλος]
EXTD=
EXTT0=
EXTT1=
EXTT2=
EXTT3=
EXTT4=
EXTT5=
EXTT6=
EXTT7=
EXTT8=
EXTT9=
EXTT10=
EXTT11=
EXTT12=
EXTT13=
EXTT14=
EXTT15=
EXTT16=
EXTT17=
EXTT18=
EXTT19=
EXTT20=
EXTT21=
EXTT22=
EXTT23=
EXTT24=
PLAYORDER=
